<svg width="107" height="21" viewBox="0 0 107 21" fill="none" xmlns="http://www.w3.org/2000/svg">
<path d="M38.232 4.22C38.568 4.22 38.832 4.328 39.024 4.544C39.228 4.748 39.33 5.024 39.33 5.372V15.938C39.33 16.286 39.228 16.568 39.024 16.784C38.82 17 38.556 17.108 38.232 17.108C37.848 17.108 37.554 16.97 37.35 16.694L30.78 8.144V15.938C30.78 16.286 30.684 16.568 30.492 16.784C30.3 17 30.036 17.108 29.7 17.108C29.364 17.108 29.1 17 28.908 16.784C28.716 16.568 28.62 16.286 28.62 15.938V5.372C28.62 5.024 28.722 4.748 28.926 4.544C29.13 4.328 29.4 4.22 29.736 4.22C30.108 4.22 30.396 4.358 30.6 4.634L37.152 13.148V5.372C37.152 5.024 37.248 4.748 37.44 4.544C37.644 4.328 37.908 4.22 38.232 4.22ZM45.8832 17.144C44.9832 17.144 44.1912 16.958 43.5072 16.586C42.8352 16.214 42.3132 15.68 41.9412 14.984C41.5692 14.288 41.3832 13.478 41.3832 12.554C41.3832 11.63 41.5692 10.826 41.9412 10.142C42.3132 9.446 42.8352 8.912 43.5072 8.54C44.1912 8.168 44.9832 7.982 45.8832 7.982C46.7832 7.982 47.5692 8.168 48.2412 8.54C48.9252 8.912 49.4472 9.446 49.8072 10.142C50.1792 10.826 50.3652 11.63 50.3652 12.554C50.3652 13.478 50.1792 14.288 49.8072 14.984C49.4472 15.68 48.9252 16.214 48.2412 16.586C47.5692 16.958 46.7832 17.144 45.8832 17.144ZM45.8652 15.398C46.5972 15.398 47.1552 15.158 47.5392 14.678C47.9232 14.198 48.1152 13.49 48.1152 12.554C48.1152 11.63 47.9232 10.928 47.5392 10.448C47.1552 9.956 46.6032 9.71 45.8832 9.71C45.1632 9.71 44.6052 9.956 44.2092 10.448C43.8252 10.928 43.6332 11.63 43.6332 12.554C43.6332 13.49 43.8252 14.198 44.2092 14.678C44.5932 15.158 45.1452 15.398 45.8652 15.398ZM56.742 15.434C57.342 15.47 57.642 15.74 57.642 16.244C57.642 16.532 57.522 16.754 57.282 16.91C57.054 17.054 56.724 17.114 56.292 17.09L55.806 17.054C53.79 16.91 52.782 15.83 52.782 13.814V9.89H51.882C51.558 9.89 51.306 9.818 51.126 9.674C50.958 9.53 50.874 9.32 50.874 9.044C50.874 8.768 50.958 8.558 51.126 8.414C51.306 8.27 51.558 8.198 51.882 8.198H52.782V6.542C52.782 6.218 52.884 5.96 53.088 5.768C53.292 5.576 53.568 5.48 53.916 5.48C54.252 5.48 54.522 5.576 54.726 5.768C54.93 5.96 55.032 6.218 55.032 6.542V8.198H56.562C56.886 8.198 57.132 8.27 57.3 8.414C57.48 8.558 57.57 8.768 57.57 9.044C57.57 9.32 57.48 9.53 57.3 9.674C57.132 9.818 56.886 9.89 56.562 9.89H55.032V13.976C55.032 14.864 55.44 15.338 56.256 15.398L56.742 15.434ZM65.7805 14.588C65.9845 14.588 66.1465 14.666 66.2665 14.822C66.3985 14.978 66.4645 15.188 66.4645 15.452C66.4645 15.824 66.2425 16.136 65.7985 16.388C65.3905 16.616 64.9285 16.802 64.4125 16.946C63.8965 17.078 63.4045 17.144 62.9365 17.144C61.5205 17.144 60.3985 16.736 59.5705 15.92C58.7425 15.104 58.3285 13.988 58.3285 12.572C58.3285 11.672 58.5085 10.874 58.8685 10.178C59.2285 9.482 59.7325 8.942 60.3805 8.558C61.0405 8.174 61.7845 7.982 62.6125 7.982C63.4045 7.982 64.0945 8.156 64.6825 8.504C65.2705 8.852 65.7265 9.344 66.0505 9.98C66.3745 10.616 66.5365 11.366 66.5365 12.23C66.5365 12.746 66.3085 13.004 65.8525 13.004H60.5425C60.6145 13.832 60.8485 14.444 61.2445 14.84C61.6405 15.224 62.2165 15.416 62.9725 15.416C63.3565 15.416 63.6925 15.368 63.9805 15.272C64.2805 15.176 64.6165 15.044 64.9885 14.876C65.3485 14.684 65.6125 14.588 65.7805 14.588ZM62.6665 9.566C62.0545 9.566 61.5625 9.758 61.1905 10.142C60.8305 10.526 60.6145 11.078 60.5425 11.798H64.6105C64.5865 11.066 64.4065 10.514 64.0705 10.142C63.7345 9.758 63.2665 9.566 62.6665 9.566ZM73.435 7.982C74.191 7.982 74.863 8.174 75.451 8.558C76.051 8.942 76.513 9.488 76.837 10.196C77.173 10.892 77.341 11.696 77.341 12.608C77.341 13.52 77.173 14.318 76.837 15.002C76.513 15.686 76.057 16.214 75.469 16.586C74.881 16.958 74.203 17.144 73.435 17.144C72.811 17.144 72.253 17.012 71.761 16.748C71.269 16.484 70.891 16.118 70.627 15.65V19.322C70.627 19.634 70.525 19.88 70.321 20.06C70.117 20.24 69.847 20.33 69.511 20.33C69.175 20.33 68.899 20.234 68.683 20.042C68.479 19.85 68.377 19.598 68.377 19.286V9.08C68.377 8.756 68.473 8.498 68.665 8.306C68.869 8.114 69.139 8.018 69.475 8.018C69.811 8.018 70.081 8.114 70.285 8.306C70.489 8.498 70.591 8.756 70.591 9.08V9.53C70.855 9.038 71.233 8.66 71.725 8.396C72.229 8.12 72.799 7.982 73.435 7.982ZM72.841 15.398C73.549 15.398 74.101 15.158 74.497 14.678C74.893 14.186 75.091 13.496 75.091 12.608C75.091 11.696 74.893 10.988 74.497 10.484C74.101 9.98 73.549 9.728 72.841 9.728C72.121 9.728 71.563 9.974 71.167 10.466C70.783 10.958 70.591 11.66 70.591 12.572C70.591 13.472 70.783 14.168 71.167 14.66C71.563 15.152 72.121 15.398 72.841 15.398ZM80.3036 17.108C79.9796 17.108 79.7096 17.018 79.4936 16.838C79.2896 16.646 79.1876 16.376 79.1876 16.028V5.282C79.1876 4.934 79.2896 4.67 79.4936 4.49C79.7096 4.31 79.9796 4.22 80.3036 4.22C80.6276 4.22 80.8976 4.31 81.1136 4.49C81.3296 4.67 81.4376 4.934 81.4376 5.282V16.028C81.4376 16.376 81.3296 16.646 81.1136 16.838C80.8976 17.018 80.6276 17.108 80.3036 17.108ZM90.7059 8.018C91.0539 8.018 91.3299 8.114 91.5339 8.306C91.7379 8.498 91.8399 8.756 91.8399 9.08V16.064C91.8399 16.376 91.7319 16.628 91.5159 16.82C91.3119 17.012 91.0419 17.108 90.7059 17.108C90.3819 17.108 90.1239 17.018 89.9319 16.838C89.7399 16.658 89.6439 16.412 89.6439 16.1V15.65C89.3679 16.13 88.9959 16.502 88.5279 16.766C88.0599 17.018 87.5319 17.144 86.9439 17.144C84.7839 17.144 83.7039 15.932 83.7039 13.508V9.08C83.7039 8.756 83.8059 8.498 84.0099 8.306C84.2139 8.114 84.4839 8.018 84.8199 8.018C85.1679 8.018 85.4439 8.114 85.6479 8.306C85.8519 8.498 85.9539 8.756 85.9539 9.08V13.526C85.9539 14.15 86.0799 14.612 86.3319 14.912C86.5839 15.212 86.9799 15.362 87.5199 15.362C88.1439 15.362 88.6419 15.158 89.0139 14.75C89.3979 14.33 89.5899 13.778 89.5899 13.094V9.08C89.5899 8.756 89.6919 8.498 89.8959 8.306C90.0999 8.114 90.3699 8.018 90.7059 8.018ZM97.3677 17.144C96.0597 17.144 95.0037 16.886 94.1997 16.37C93.8157 16.142 93.6237 15.818 93.6237 15.398C93.6237 15.158 93.6897 14.966 93.8217 14.822C93.9537 14.666 94.1157 14.588 94.3077 14.588C94.5117 14.588 94.7937 14.684 95.1537 14.876C95.5377 15.056 95.8857 15.194 96.1977 15.29C96.5217 15.386 96.9297 15.434 97.4217 15.434C97.9257 15.434 98.3157 15.35 98.5917 15.182C98.8797 15.014 99.0237 14.78 99.0237 14.48C99.0237 14.276 98.9637 14.114 98.8437 13.994C98.7357 13.874 98.5317 13.766 98.2317 13.67C97.9437 13.562 97.4997 13.442 96.8997 13.31C95.8317 13.094 95.0637 12.788 94.5957 12.392C94.1397 11.996 93.9117 11.45 93.9117 10.754C93.9117 10.226 94.0677 9.752 94.3797 9.332C94.6917 8.9 95.1177 8.57 95.6577 8.342C96.2097 8.102 96.8337 7.982 97.5297 7.982C98.0337 7.982 98.5197 8.048 98.9877 8.18C99.4557 8.3 99.8757 8.48 100.248 8.72C100.632 8.96 100.824 9.278 100.824 9.674C100.824 9.914 100.758 10.118 100.626 10.286C100.494 10.442 100.332 10.52 100.14 10.52C100.008 10.52 99.8757 10.496 99.7437 10.448C99.6237 10.388 99.4677 10.304 99.2757 10.196C98.9277 10.016 98.6277 9.884 98.3757 9.8C98.1237 9.704 97.8117 9.656 97.4397 9.656C96.9957 9.656 96.6417 9.746 96.3777 9.926C96.1257 10.106 95.9997 10.352 95.9997 10.664C95.9997 10.964 96.1317 11.192 96.3957 11.348C96.6597 11.504 97.1697 11.66 97.9257 11.816C98.7297 11.984 99.3597 12.176 99.8157 12.392C100.272 12.608 100.596 12.878 100.788 13.202C100.992 13.526 101.094 13.94 101.094 14.444C101.094 15.26 100.752 15.914 100.068 16.406C99.3957 16.898 98.4957 17.144 97.3677 17.144Z" fill="url(#paint0_linear)"/>
<path d="M17.414 2.586C17.0389 2.21106 16.5303 2.00043 16 2.00043C15.4697 2.00043 14.9611 2.21106 14.586 2.586L7 10.172V13H9.828L17.414 5.414C17.7889 5.03894 17.9996 4.53033 17.9996 4C17.9996 3.46967 17.7889 2.96106 17.414 2.586Z" fill="#2563EB"/>
<path fill-rule="evenodd" clip-rule="evenodd" d="M2 6C2 5.46957 2.21071 4.96086 2.58579 4.58579C2.96086 4.21071 3.46957 4 4 4H8C8.26522 4 8.51957 4.10536 8.70711 4.29289C8.89464 4.48043 9 4.73478 9 5C9 5.26522 8.89464 5.51957 8.70711 5.70711C8.51957 5.89464 8.26522 6 8 6H4V16H14V12C14 11.7348 14.1054 11.4804 14.2929 11.2929C14.4804 11.1054 14.7348 11 15 11C15.2652 11 15.5196 11.1054 15.7071 11.2929C15.8946 11.4804 16 11.7348 16 12V16C16 16.5304 15.7893 17.0391 15.4142 17.4142C15.0391 17.7893 14.5304 18 14 18H4C3.46957 18 2.96086 17.7893 2.58579 17.4142C2.21071 17.0391 2 16.5304 2 16V6Z" fill="#BFDBFE"/>
<defs>
<linearGradient id="paint0_linear" x1="102.526" y1="12.125" x2="24.2583" y2="10.1489" gradientUnits="userSpaceOnUse">
<stop stop-color="#2563EB"/>
<stop offset="1" stop-color="#60A5FA"/>
</linearGradient>
</defs>
</svg>
